<?xml version="1.0" encoding="UTF-8" standalone="no"?>
<!DOCTYPE svg PUBLIC "-//W3C//DTD SVG 1.1//EN" "http://www.w3.org/Graphics/SVG/1.1/DTD/svg11.dtd">
<svg width="100%" height="100%" viewBox="0 0 6053 3228" version="1.1" xmlns="http://www.w3.org/2000/svg" xmlns:xlink="http://www.w3.org/1999/xlink" xml:space="preserve" xmlns:serif="http://www.serif.com/" style="fill-rule:evenodd;clip-rule:evenodd;stroke-linejoin:round;stroke-miterlimit:2;">
    <g transform="matrix(4.16667,0,0,4.16667,-14729.9,-9768.76)">
        <g transform="matrix(1,0,0,1,-3219.78,1969.67)">
            <g transform="matrix(0.966179,0,0,0.966179,5232.94,-20.8122)">
                <path d="M2743.48,699.07C2743.06,699.07 2742.67,699.272 2742.43,699.611C2742.18,699.951 2742.12,700.386 2742.26,700.781C2793.42,851.02 2823.46,998.931 2832.66,1137.47C2832.7,1138.15 2833.26,1138.68 2833.95,1138.68C2847.89,1138.68 2977.47,1138.68 2977.47,1138.68C3000.62,1138.68 3021.72,1125.45 3031.82,1104.63C3042.96,1081.64 3058.2,1050.21 3072.57,1020.56C3081.65,1001.85 3080.45,979.777 3069.41,962.15C3058.36,944.524 3039.03,933.82 3018.23,933.82C3005.84,933.82 2993.17,933.82 2980.79,933.82C2960.03,933.82 2940.73,923.158 2929.67,905.588C2918.62,888.017 2917.36,866 2926.34,847.285C2936,827.159 2946.29,805.731 2955.95,785.605C2964.94,766.891 2963.68,744.874 2952.62,727.303C2941.57,709.732 2922.26,699.07 2901.51,699.07L2743.48,699.07ZM2682.77,699.07C2683.32,699.07 2683.81,699.417 2683.99,699.934C2737.02,850.434 2768.25,998.714 2777.77,1137.29C2777.8,1137.65 2777.67,1138 2777.43,1138.27C2777.18,1138.53 2776.84,1138.68 2776.48,1138.68C2759.2,1138.68 2585.69,1138.68 2568.57,1138.68C2568.22,1138.68 2567.88,1138.53 2567.64,1138.28C2567.39,1138.02 2567.26,1137.67 2567.28,1137.32C2573.66,1004.25 2550.39,854.055 2496.87,700.791C2496.73,700.395 2496.8,699.957 2497.04,699.615C2497.28,699.274 2497.67,699.07 2498.09,699.07C2516.57,699.07 2669.52,699.07 2682.77,699.07ZM2453.08,699.07C2453.62,699.07 2454.11,699.412 2454.3,699.924C2509.9,853.576 2534.22,1004.44 2527.43,1137.45C2527.39,1138.14 2526.83,1138.68 2526.14,1138.68C2511.76,1138.68 2375.7,1138.68 2359.06,1138.68C2358.66,1138.68 2358.28,1138.49 2358.04,1138.18C2357.79,1137.86 2357.7,1137.45 2357.8,1137.06C2361.04,1124.32 2363.8,1111.23 2366.08,1097.81C2385.61,982.87 2370.08,843.39 2318.55,700.804C2318.4,700.408 2318.46,699.966 2318.7,699.621C2318.95,699.276 2319.34,699.071 2319.76,699.071C2335.17,699.07 2442.11,699.07 2453.08,699.07ZM2286.24,699.07C2286.78,699.07 2287.26,699.405 2287.45,699.91C2340.25,840.957 2356.85,979.314 2337.54,1092.96C2334.92,1108.36 2331.64,1123.3 2327.69,1137.73C2327.54,1138.29 2327.03,1138.68 2326.45,1138.68C2315.87,1138.68 2223.82,1138.68 2223.82,1138.68C2207.61,1138.68 2192.29,1132.18 2181.11,1120.96C2180.67,1120.51 2180.61,1119.82 2180.97,1119.31C2203.98,1086.29 2219.5,1045.62 2227.32,999.621C2241.03,918.977 2230.96,821.699 2196.52,721.814C2196.41,721.492 2196.43,721.14 2196.58,720.833C2197.95,717.983 2205.01,703.274 2206.67,699.804C2206.89,699.356 2207.34,699.07 2207.84,699.07C2215.7,699.07 2278.01,699.07 2286.24,699.07ZM2181.82,751.574C2182.05,751.093 2182.55,750.803 2183.08,750.843C2183.61,750.882 2184.07,751.242 2184.22,751.751C2211.33,839.734 2218.74,924.642 2206.6,996.098C2199.98,1035 2187.56,1069.88 2169.29,1098.92C2169.03,1099.34 2168.55,1099.57 2168.07,1099.52C2167.58,1099.46 2167.16,1099.14 2166.99,1098.68C2161.55,1083.57 2162.31,1066.71 2169.47,1051.93C2174.5,1041.55 2179.64,1030.95 2184.68,1020.56C2193.75,1001.85 2192.56,979.777 2181.51,962.15C2170.47,944.524 2151.13,933.82 2130.33,933.82L2127.07,933.82C2126.68,933.82 2126.32,933.648 2126.07,933.351C2125.82,933.054 2125.72,932.662 2125.8,932.284C2126.11,930.655 2126.55,928.315 2126.55,928.315C2130.24,906.646 2131.56,883.323 2130.48,858.869C2130.47,858.656 2130.52,858.444 2130.61,858.252C2133.29,852.656 2173.68,768.537 2181.82,751.574Z" style="fill:url(#_Linear1);"/>
            </g>
            <g transform="matrix(1.59782,0,0,1.59782,4015.68,-940.656)">
                <path d="M1735.77,968.491C1733.29,947.701 1733.58,927.981 1736.61,910.162C1742.36,876.293 1758.01,849.269 1783.33,834.65C1808.65,820.031 1839.88,819.991 1872.09,831.94C1920.07,849.739 1970.26,894.175 2006.1,956.252L2006.1,956.252C2041.94,1018.33 2055.33,1084.02 2046.75,1134.47C2041,1168.34 2025.35,1195.36 2000.03,1209.98C1974.71,1224.6 1943.48,1224.64 1911.27,1212.69C1894.32,1206.4 1877.1,1196.79 1860.34,1184.24C1847.3,1181.06 1830.16,1173.84 1811.55,1158.18L1800.15,1164.77C1800.15,1164.77 1763.91,1170.83 1731.54,1114.77C1699.18,1058.7 1722.55,1030.36 1722.55,1030.36L1733.94,1023.78C1729.69,999.824 1732.02,981.374 1735.77,968.491ZM1866.01,1185.46C1881.22,1196.35 1896.77,1204.79 1912.09,1210.47C1943.57,1222.15 1974.1,1222.22 1998.84,1207.93C2023.59,1193.64 2038.79,1167.17 2044.42,1134.07C2052.92,1084.06 2039.58,1018.97 2004.05,957.436L2004.05,957.436C1968.53,895.902 1918.82,851.802 1871.27,834.159C1839.79,822.481 1809.26,822.411 1784.52,836.7C1759.77,850.988 1744.57,877.457 1738.94,910.559C1736.2,926.671 1735.73,944.35 1737.55,962.973L1736.65,965.486L1735.77,968.491C1740.29,1006.56 1754.08,1048.22 1777.26,1088.38C1800.44,1128.53 1829.62,1161.3 1860.34,1184.24L1863.38,1184.98L1866.01,1185.46ZM1740.93,954.896C1740.31,941.17 1741.04,928.085 1743.1,915.928C1748.6,883.61 1763.54,857.828 1787.7,843.878C1811.86,829.928 1841.66,829.879 1872.39,841.281C1918.11,858.24 1965.94,900.574 2000.09,959.723L2000.09,959.723C2034.24,1018.87 2046.99,1081.46 2038.82,1129.53C2033.32,1161.85 2018.38,1187.63 1994.22,1201.58C1970.06,1215.53 1940.26,1215.58 1909.52,1204.18C1897.96,1199.89 1886.27,1193.98 1874.69,1186.58L1872.4,1186.4C1870.99,1186.22 1869.57,1186.04 1868.15,1185.86L1866.01,1185.46C1833.98,1162.6 1803.39,1128.9 1779.31,1087.19C1755.23,1045.49 1741.34,1002.14 1737.55,962.973L1738.28,960.921C1738.83,959.601 1739.38,958.282 1739.94,956.962L1740.93,954.896ZM1880.1,1186.73C1890.21,1192.88 1900.39,1197.88 1910.48,1201.62C1940.37,1212.7 1969.35,1212.78 1992.85,1199.21C2016.35,1185.65 2030.78,1160.51 2036.12,1129.07C2044.21,1081.51 2031.51,1019.61 1997.72,961.09L1997.72,961.09C1963.94,902.57 1916.67,860.623 1871.44,843.844C1841.55,832.754 1812.57,832.677 1789.07,846.245C1765.57,859.813 1751.14,884.953 1745.8,916.386C1744,926.987 1743.23,938.301 1743.5,950.136C1742.73,951.42 1741.85,953.005 1740.93,954.896C1742.75,995.435 1756.32,1041.55 1781.83,1085.74C1807.34,1129.93 1840.49,1164.73 1874.69,1186.58C1876.79,1186.73 1878.61,1186.77 1880.1,1186.73ZM1750.52,943.522C1750.82,940.895 1751.18,938.315 1751.61,935.782C1756.41,907.519 1769.5,884.985 1790.63,872.786C1811.76,860.587 1837.82,860.519 1864.7,870.491C1904.52,885.265 1946.2,922.131 1975.95,973.659L1975.95,973.66C2005.7,1025.19 2016.79,1079.72 2009.67,1121.59C2004.87,1149.86 1991.78,1172.39 1970.65,1184.59C1949.52,1196.79 1923.46,1196.86 1896.58,1186.88C1894.17,1185.99 1891.76,1185.02 1889.34,1183.96L1885.07,1186.42C1884.57,1186.48 1884.06,1186.54 1883.56,1186.59L1880.1,1186.73C1844.85,1165.31 1810.45,1129.85 1784.2,1084.37C1757.94,1038.89 1744.42,991.374 1743.5,950.136L1745.35,947.207C1745.65,946.8 1745.95,946.393 1746.25,945.986L1750.52,943.522ZM1893.1,1181.78C1894.67,1182.44 1896.23,1183.06 1897.79,1183.63C1923.6,1193.21 1948.63,1193.3 1968.92,1181.59C1989.21,1169.87 2001.64,1148.15 2006.25,1121.01C2013.26,1079.78 2002.24,1026.12 1972.95,975.393L1972.95,975.393C1943.66,924.662 1902.7,888.286 1863.49,873.741C1837.68,864.166 1812.65,864.074 1792.36,875.788C1772.07,887.503 1759.64,909.223 1755.03,936.363C1754.75,938.003 1754.5,939.664 1754.29,941.347L1750.52,943.522C1745.9,984.245 1757.38,1035.3 1785.33,1083.71C1813.28,1132.13 1851.76,1167.6 1889.34,1183.96L1893.1,1181.78ZM1765.01,935.157C1770.84,918.575 1780.77,905.411 1794.69,897.377C1813.13,886.728 1835.87,886.651 1859.34,895.354C1893.98,908.208 1930.25,940.272 1956.13,985.101L1956.13,985.101C1982.02,1029.93 1991.65,1077.37 1985.46,1113.8C1981.27,1138.47 1969.83,1158.13 1951.38,1168.78C1937.47,1176.82 1921.1,1178.83 1903.82,1175.59L1893.1,1181.78C1855.34,1166.17 1816.45,1130.69 1788.33,1081.98C1760.21,1033.27 1748.93,981.857 1754.29,941.347L1765.01,935.157ZM1909.09,1172.55C1923.73,1174.5 1937.54,1172.35 1949.47,1165.46C1966.98,1155.35 1977.7,1136.59 1981.68,1113.16C1987.75,1077.45 1978.19,1030.96 1952.82,987.018L1952.82,987.017C1927.44,943.07 1891.97,911.549 1858,898.948C1835.72,890.683 1814.12,890.584 1796.6,900.696C1784.68,907.58 1775.91,918.47 1770.27,932.118L1765.01,935.157C1763.11,940.543 1761.64,946.298 1760.61,952.354C1754.42,988.786 1764.05,1036.23 1789.93,1081.06C1815.82,1125.89 1852.09,1157.95 1886.73,1170.8C1892.49,1172.94 1898.21,1174.55 1903.82,1175.59L1909.09,1172.55ZM1791.47,919.881C1793.66,918.076 1796.01,916.46 1798.5,915.023C1815.26,905.346 1835.93,905.155 1857.26,913.074C1887.97,924.479 1920.18,952.852 1943.14,992.605C1966.09,1032.36 1974.55,1074.44 1969.07,1106.75C1965.27,1129.17 1954.77,1146.98 1938.01,1156.65C1935.52,1158.09 1932.94,1159.32 1930.28,1160.32L1909.09,1172.55C1902.22,1171.66 1895.18,1169.85 1888.07,1167.21C1854.1,1154.61 1818.62,1123.09 1793.25,1079.14C1767.88,1035.19 1758.32,988.711 1764.39,952.996C1765.66,945.516 1767.62,938.511 1770.27,932.118L1791.47,919.881ZM1935.37,997.089C1957.13,1034.78 1965.43,1074.62 1960.23,1105.25C1956.92,1124.77 1948.11,1140.47 1933.53,1148.89C1918.94,1157.31 1900.94,1157.09 1882.38,1150.2C1853.26,1139.38 1822.9,1112.28 1801.14,1074.59C1779.38,1036.9 1771.08,997.055 1776.28,966.431C1779.59,946.91 1788.4,931.21 1802.99,922.788C1817.57,914.366 1835.57,914.587 1854.14,921.48C1883.25,932.293 1913.61,959.398 1935.37,997.089ZM1908.69,1012.49C1893.58,986.317 1872.42,967.586 1852.2,960.077C1838.56,955.014 1825.34,955.041 1814.63,961.229C1803.91,967.416 1797.28,978.849 1794.85,993.19C1791.24,1014.46 1796.88,1042.15 1811.99,1068.32C1827.1,1094.5 1848.26,1113.23 1868.49,1120.74C1882.12,1125.8 1895.34,1125.77 1906.06,1119.59C1916.77,1113.4 1923.4,1101.96 1925.84,1087.62C1929.44,1066.36 1923.81,1038.66 1908.69,1012.49ZM1907.28,1013.31C1922.17,1039.11 1927.78,1066.39 1924.23,1087.35C1921.88,1101.16 1915.56,1112.21 1905.24,1118.17C1894.92,1124.13 1882.18,1124.08 1869.05,1119.21C1849.12,1111.81 1828.3,1093.31 1813.4,1067.51C1798.51,1041.71 1792.9,1014.42 1796.45,993.463C1798.8,979.652 1805.12,968.602 1815.44,962.643C1825.76,956.684 1838.5,956.732 1851.63,961.609C1871.56,969.01 1892.38,987.509 1907.28,1013.31ZM1907.05,1013.44C1892.46,988.161 1872.02,970.072 1852.49,962.82C1839.31,957.927 1826.54,957.955 1816.19,963.933C1805.84,969.911 1799.42,980.957 1797.08,994.812C1793.59,1015.35 1799.04,1042.1 1813.63,1067.38C1828.22,1092.65 1848.66,1110.74 1868.19,1118C1881.37,1122.89 1894.14,1122.86 1904.49,1116.88C1914.85,1110.9 1921.26,1099.86 1923.61,1086C1927.09,1065.46 1921.65,1038.72 1907.05,1013.44L1907.05,1013.44ZM1905.64,1014.25C1920.02,1039.16 1925.43,1065.5 1922,1085.73C1919.74,1099.06 1913.63,1109.72 1903.68,1115.47C1893.72,1121.22 1881.43,1121.17 1868.76,1116.46C1849.52,1109.32 1829.42,1091.46 1815.05,1066.56C1800.67,1041.66 1795.25,1015.32 1798.68,995.085C1800.94,981.76 1807.05,971.097 1817.01,965.348C1826.96,959.598 1839.25,959.645 1851.92,964.351C1871.16,971.495 1891.26,989.353 1905.64,1014.25L1905.64,1014.25ZM1879.18,1029.53C1892.84,1053.19 1892.27,1079.14 1877.9,1087.43C1863.53,1095.73 1840.78,1083.25 1827.12,1059.59C1813.45,1035.93 1814.03,1009.98 1828.39,1001.69C1842.76,993.394 1865.52,1005.87 1879.18,1029.53ZM1859.32,1041C1862.57,1046.61 1862.43,1052.77 1859.02,1054.73C1855.61,1056.7 1850.21,1053.74 1846.97,1048.13C1843.73,1042.51 1843.86,1036.36 1847.27,1034.39C1850.68,1032.42 1856.08,1035.38 1859.32,1041Z" style="fill:url(#_Linear2);"/>
            </g>
            <g transform="matrix(1,0,0,1,5048.73,8.32823)">
                <path d="M2217.98,823.471C2218.44,823.471 2218.86,823.219 2219.08,822.816C2219.3,822.412 2219.28,821.921 2219.03,821.537C2212.34,811.297 2181.37,763.855 2181.37,763.855C2178.8,759.991 2176.22,756.127 2173.65,752.263C2171.07,748.399 2168.31,744.443 2165.37,740.395C2163.16,737.267 2161.04,734.599 2159.02,732.391C2157.55,730.791 2156.09,729.384 2154.62,728.171C2154.28,727.895 2154.11,727.462 2154.17,727.029C2154.23,726.596 2154.51,726.227 2154.91,726.055C2161.71,723.075 2168.05,718.563 2173.92,712.519C2181.65,704.239 2185.51,693.659 2185.51,680.779C2185.51,663.667 2179.53,650.511 2167.57,641.311C2161.69,636.711 2154.69,633.353 2146.6,631.237C2138.5,629.121 2129.3,628.063 2119,628.063L2069.19,628.063C2068.86,628.063 2068.54,628.194 2068.3,628.429C2068.07,628.663 2067.94,628.981 2067.94,629.313C2067.94,645.148 2067.94,806.385 2067.94,822.221C2067.94,822.552 2068.07,822.87 2068.3,823.104C2068.54,823.339 2068.86,823.471 2069.19,823.471C2072.99,823.471 2084.41,823.471 2088.22,823.471C2088.55,823.471 2088.87,823.339 2089.1,823.104C2089.33,822.87 2089.47,822.552 2089.47,822.221C2089.47,812.142 2089.47,744.271 2089.47,734.193C2089.47,733.861 2089.6,733.543 2089.83,733.309C2090.07,733.074 2090.38,732.943 2090.72,732.943C2095.83,732.943 2114.86,732.943 2114.86,732.943C2120.93,732.943 2126.13,733.863 2130.45,735.703C2134.78,737.543 2138.41,740.027 2141.35,743.155C2144.67,746.835 2147.89,750.929 2151.01,755.437C2154.14,759.945 2157.36,764.867 2160.67,770.203C2160.67,770.203 2190.84,817.149 2194.53,822.896C2194.76,823.254 2195.16,823.471 2195.58,823.471C2198.79,823.471 2212.47,823.471 2217.98,823.471ZM2547.35,822.361C2547.68,822.361 2548,822.229 2548.24,821.995C2548.47,821.76 2548.6,821.442 2548.6,821.111C2548.6,808.321 2548.6,701.429 2548.6,688.639C2548.6,688.307 2548.47,687.989 2548.24,687.755C2548,687.521 2547.68,687.389 2547.35,687.389C2544.58,687.389 2537.95,687.389 2535.17,687.389C2534.84,687.389 2534.53,687.521 2534.29,687.755C2534.06,687.989 2533.92,688.307 2533.92,688.639C2533.92,701.429 2533.92,808.321 2533.92,821.111C2533.92,821.442 2534.06,821.76 2534.29,821.995C2534.53,822.229 2534.84,822.361 2535.17,822.361C2537.95,822.361 2544.58,822.361 2547.35,822.361ZM2982.01,700.543C2982.34,700.543 2982.66,700.411 2982.89,700.177C2983.13,699.942 2983.26,699.624 2983.26,699.293C2983.26,696.782 2983.26,691.15 2983.26,688.639C2983.26,687.948 2982.7,687.389 2982.01,687.389C2970.52,687.389 2883.52,687.389 2872.03,687.389C2871.7,687.389 2871.38,687.521 2871.15,687.755C2870.91,687.989 2870.78,688.307 2870.78,688.639C2870.78,691.183 2870.78,696.939 2870.78,699.483C2870.78,699.815 2870.91,700.133 2871.15,700.367C2871.38,700.602 2871.7,700.734 2872.03,700.733C2878.85,700.733 2911.51,700.733 2918.34,700.733C2918.67,700.733 2918.99,700.865 2919.22,701.1C2919.45,701.334 2919.59,701.652 2919.59,701.984C2919.59,714.013 2919.59,809.081 2919.59,821.111C2919.59,821.442 2919.72,821.76 2919.95,821.995C2920.19,822.229 2920.5,822.361 2920.84,822.361C2923.64,822.361 2930.4,822.361 2933.21,822.361C2933.54,822.361 2933.86,822.229 2934.09,821.995C2934.32,821.76 2934.46,821.442 2934.46,821.111C2934.46,809.07 2934.46,713.834 2934.46,701.793C2934.46,701.461 2934.59,701.143 2934.82,700.909C2935.06,700.675 2935.37,700.543 2935.71,700.543C2942.53,700.543 2975.19,700.543 2982.01,700.543ZM2508.38,755.065C2508.38,734.222 2501.83,717.7 2488.74,705.499C2475.65,693.426 2458.05,687.389 2435.94,687.389L2388.57,687.389C2388.24,687.389 2387.92,687.52 2387.69,687.755C2387.45,687.989 2387.32,688.307 2387.32,688.639C2387.32,701.429 2387.32,808.321 2387.32,821.111C2387.32,821.801 2387.88,822.361 2388.57,822.361C2396.32,822.361 2437.46,822.361 2437.46,822.361C2459.58,822.361 2476.92,816.07 2489.51,803.488C2502.09,790.906 2508.38,774.765 2508.38,755.065ZM2844.75,822.361C2845.44,822.361 2846,821.801 2846,821.111C2846,808.321 2846,701.429 2846,688.639C2846,688.307 2845.87,687.989 2845.63,687.755C2845.4,687.521 2845.08,687.389 2844.75,687.389C2841.95,687.389 2835.18,687.389 2832.38,687.389C2831.69,687.389 2831.13,687.948 2831.13,688.639C2831.13,699.42 2831.13,776.713 2831.13,793.975C2831.13,794.499 2830.8,794.968 2830.31,795.148C2829.82,795.329 2829.26,795.183 2828.93,794.782C2822.05,786.662 2815.22,778.697 2808.44,770.888C2800.95,762.246 2793.38,753.731 2785.76,745.343C2777.37,736.065 2769.11,726.66 2760.97,717.128C2752.96,707.734 2744.7,697.97 2736.18,687.835C2735.95,687.552 2735.6,687.389 2735.23,687.389C2733.38,687.389 2727.61,687.389 2725.05,687.389C2724.72,687.389 2724.4,687.521 2724.17,687.755C2723.93,687.989 2723.8,688.307 2723.8,688.639C2723.8,701.429 2723.8,808.321 2723.8,821.111C2723.8,821.442 2723.93,821.76 2724.17,821.995C2724.4,822.229 2724.72,822.361 2725.05,822.361C2727.85,822.361 2734.62,822.361 2737.42,822.361C2738.11,822.361 2738.67,821.801 2738.67,821.111C2738.67,810.329 2738.67,733.026 2738.67,715.905C2738.67,715.383 2738.99,714.916 2739.48,714.734C2739.97,714.551 2740.52,714.692 2740.87,715.087C2754.53,730.86 2827.56,815.162 2833.43,821.929C2833.66,822.203 2834.01,822.361 2834.37,822.361C2836.23,822.361 2842.15,822.361 2844.75,822.361ZM2366.32,822.361C2366.74,822.361 2367.14,822.145 2367.37,821.787C2367.6,821.429 2367.63,820.979 2367.45,820.592C2360.53,805.394 2311.17,697.114 2306.64,687.167C2306.43,686.722 2305.99,686.436 2305.5,686.436C2303.86,686.436 2300.16,686.436 2298.53,686.436C2298.04,686.436 2297.59,686.72 2297.39,687.165C2292.84,697.094 2243.17,805.38 2236.2,820.59C2236.02,820.977 2236.05,821.427 2236.28,821.786C2236.51,822.144 2236.91,822.361 2237.33,822.361C2240.82,822.361 2248,822.361 2250.4,822.361C2250.89,822.361 2251.34,822.075 2251.54,821.629C2253.98,816.28 2269.03,783.26 2271.46,777.911C2271.67,777.466 2272.11,777.18 2272.6,777.18C2279.23,777.18 2324.79,777.18 2331.42,777.18C2331.91,777.18 2332.36,777.466 2332.56,777.911C2335,783.26 2350.05,816.28 2352.48,821.629C2352.69,822.075 2353.13,822.361 2353.62,822.361C2355.98,822.361 2362.9,822.361 2366.32,822.361ZM2700.7,822.361C2701.12,822.361 2701.52,822.145 2701.75,821.787C2701.98,821.429 2702.01,820.979 2701.83,820.592C2694.91,805.394 2645.55,697.114 2641.01,687.167C2640.81,686.722 2640.37,686.436 2639.88,686.436C2638.24,686.436 2634.54,686.436 2632.91,686.436C2632.42,686.436 2631.97,686.72 2631.77,687.165C2627.22,697.094 2577.55,805.38 2570.58,820.59C2570.4,820.977 2570.43,821.427 2570.66,821.786C2570.89,822.144 2571.29,822.361 2571.71,822.361C2575.2,822.361 2582.38,822.361 2584.78,822.361C2585.27,822.361 2585.72,822.075 2585.92,821.629C2588.36,816.28 2603.41,783.26 2605.84,777.911C2606.05,777.466 2606.49,777.18 2606.98,777.18C2613.61,777.18 2659.17,777.18 2665.8,777.18C2666.29,777.18 2666.74,777.466 2666.94,777.911C2669.38,783.26 2684.43,816.28 2686.86,821.629C2687.07,822.075 2687.51,822.361 2688,822.361C2690.36,822.361 2697.28,822.361 2700.7,822.361ZM2492.75,755.065C2492.75,771.46 2487.47,784.551 2476.92,794.337C2466.25,804.25 2452.14,809.207 2434.6,809.207L2403.44,809.207C2402.75,809.207 2402.19,808.647 2402.19,807.957L2402.19,701.793C2402.19,701.102 2402.75,700.543 2403.44,700.543C2409.46,700.543 2435.17,700.543 2435.17,700.543C2452.71,700.543 2466.69,705.563 2477.11,715.603C2487.53,725.644 2492.75,738.798 2492.75,755.065ZM2325.32,762.256C2325.5,762.643 2325.46,763.093 2325.23,763.451C2325,763.809 2324.61,764.025 2324.18,764.025C2316.39,764.025 2287.45,764.025 2279.65,764.025C2279.23,764.025 2278.83,763.809 2278.6,763.451C2278.37,763.093 2278.34,762.643 2278.51,762.256C2282.1,754.402 2296.6,722.679 2300.78,713.517C2300.98,713.072 2301.43,712.786 2301.92,712.786C2302.41,712.786 2302.85,713.072 2303.05,713.517C2307.24,722.679 2321.73,754.402 2325.32,762.256ZM2659.7,762.256C2659.88,762.643 2659.84,763.093 2659.61,763.451C2659.38,763.809 2658.99,764.025 2658.56,764.025C2650.77,764.025 2621.83,764.025 2614.03,764.025C2613.61,764.025 2613.21,763.809 2612.98,763.451C2612.75,763.093 2612.72,762.643 2612.89,762.256C2616.48,754.402 2630.97,722.679 2635.16,713.517C2635.36,713.072 2635.81,712.786 2636.3,712.786C2636.79,712.786 2637.23,713.072 2637.43,713.517C2641.62,722.679 2656.11,754.402 2659.7,762.256ZM2162.88,680.503C2162.88,691.543 2159.02,699.823 2151.29,705.343C2143.38,711.231 2132.06,714.175 2117.34,714.175L2090.72,714.175C2090.03,714.175 2089.47,713.615 2089.47,712.925C2089.47,704.554 2089.47,656.727 2089.47,648.357C2089.47,647.666 2090.03,647.107 2090.72,647.107C2096.3,647.107 2118.72,647.107 2118.72,647.107C2132.52,647.107 2143.47,650.143 2151.57,656.215C2159.11,661.551 2162.88,669.647 2162.88,680.503Z" style="fill:white;"/>
            </g>
            <g transform="matrix(1,0,0,1,4949.62,-1969.67)">
                <path d="M2874.28,2965.07L2874.28,2890.26C2874.28,2889.57 2873.72,2889.01 2873.03,2889.01C2870.22,2889.01 2863.46,2889.01 2860.66,2889.01C2860.32,2889.01 2860.01,2889.14 2859.77,2889.37C2859.54,2889.61 2859.41,2889.92 2859.41,2890.26C2859.41,2900.07 2859.41,2964.31 2859.41,2964.31C2859.41,2971.68 2858.42,2978.19 2856.45,2983.85C2854.48,2989.5 2851.65,2994.49 2847.97,2998.81C2840.47,3007.33 2830.37,3011.59 2817.66,3011.59C2804.69,3011.59 2794.4,3007.45 2786.77,2999.19C2779.27,2990.93 2775.53,2979.62 2775.53,2965.26L2775.53,2890.26C2775.53,2889.57 2774.97,2889.01 2774.28,2889.01C2771.47,2889.01 2764.71,2889.01 2761.91,2889.01C2761.57,2889.01 2761.26,2889.14 2761.02,2889.37C2760.79,2889.61 2760.66,2889.92 2760.66,2890.26C2760.66,2900.19 2760.66,2966.02 2760.66,2966.02C2760.66,2983.69 2765.93,2998.05 2776.48,3009.11C2787.15,3020.16 2800.82,3025.69 2817.47,3025.69C2834.37,3025.69 2848.03,3019.91 2858.45,3008.35C2869,2997.03 2874.28,2982.61 2874.28,2965.07ZM2733.01,2956.49C2733.01,2936.79 2726.15,2920.33 2712.42,2907.12C2698.83,2893.9 2681.92,2887.29 2661.71,2887.29C2641.63,2887.29 2624.73,2893.96 2611,2907.31C2597.41,2920.4 2590.61,2936.79 2590.61,2956.49C2590.61,2966.28 2592.32,2975.3 2595.75,2983.56C2599.18,2991.82 2604.33,2999.26 2611.19,3005.87C2624.79,3019.08 2641.63,3025.69 2661.71,3025.69C2681.79,3025.69 2698.7,3019.02 2712.42,3005.68C2726.15,2992.59 2733.01,2976.19 2733.01,2956.49ZM3190.93,2956.68C3190.93,2935.84 3184.38,2919.32 3171.29,2907.12C3158.2,2895.04 3140.6,2889.01 3118.48,2889.01L3071.12,2889.01C3070.79,2889.01 3070.47,2889.14 3070.24,2889.37C3070,2889.61 3069.87,2889.92 3069.87,2890.26C3069.87,2903.05 3069.87,3009.94 3069.87,3022.73C3069.87,3023.42 3070.43,3023.98 3071.12,3023.98C3078.87,3023.98 3120.01,3023.98 3120.01,3023.98C3142.12,3023.98 3159.47,3017.69 3172.05,3005.1C3184.64,2992.52 3190.93,2976.38 3190.93,2956.68ZM3031.26,3023.98C3031.95,3023.98 3032.51,3023.42 3032.51,3022.73C3032.51,3009.94 3032.51,2903.05 3032.51,2890.26C3032.51,2889.92 3032.37,2889.61 3032.14,2889.37C3031.91,2889.14 3031.59,2889.01 3031.26,2889.01C3028.45,2889.01 3021.69,2889.01 3018.89,2889.01C3018.2,2889.01 3017.64,2889.57 3017.64,2890.26C3017.64,2901.04 3017.64,2978.33 3017.64,2995.59C3017.64,2996.12 3017.31,2996.58 3016.82,2996.76C3016.32,2996.95 3015.77,2996.8 3015.43,2996.4C3008.55,2988.28 3001.72,2980.31 2994.95,2972.51C2987.45,2963.86 2979.89,2955.35 2972.26,2946.96C2963.88,2937.68 2955.62,2928.28 2947.48,2918.74C2939.46,2909.35 2931.2,2899.59 2922.69,2889.45C2922.45,2889.17 2922.1,2889.01 2921.73,2889.01C2919.89,2889.01 2914.12,2889.01 2911.56,2889.01C2911.22,2889.01 2910.91,2889.14 2910.67,2889.37C2910.44,2889.61 2910.31,2889.92 2910.31,2890.26C2910.31,2903.05 2910.31,3009.94 2910.31,3022.73C2910.31,3023.06 2910.44,3023.38 2910.67,3023.61C2910.91,3023.85 2911.22,3023.98 2911.56,3023.98C2914.36,3023.98 2921.12,3023.98 2923.93,3023.98C2924.62,3023.98 2925.18,3023.42 2925.18,3022.73C2925.18,3011.95 2925.18,2934.64 2925.18,2917.52C2925.18,2917 2925.5,2916.53 2925.99,2916.35C2926.48,2916.17 2927.03,2916.31 2927.37,2916.7C2941.04,2932.48 3014.07,3016.78 3019.93,3023.55C3020.17,3023.82 3020.51,3023.98 3020.88,3023.98C3022.74,3023.98 3028.65,3023.98 3031.26,3023.98ZM2570.53,2968.75C2570.53,2953.3 2566.75,2941.43 2559.21,2933.15C2555.53,2928.91 2550.29,2924.91 2543.48,2921.14C2536.67,2917.37 2528.48,2913.74 2518.91,2910.24C2504.93,2905.09 2494.99,2900.03 2489.11,2895.06C2483.77,2890.28 2481.1,2883.38 2481.1,2874.36C2481.1,2865.89 2484.6,2858.44 2491.59,2852C2495.09,2848.88 2498.9,2846.53 2503.04,2844.97C2507.18,2843.4 2511.92,2842.62 2517.26,2842.62C2525.72,2842.62 2533.45,2844.28 2540.44,2847.59C2544.12,2849.43 2547.66,2851.22 2551.07,2852.97C2554.01,2854.48 2557.46,2856.37 2561.43,2858.63C2561.82,2858.85 2562.3,2858.85 2562.69,2858.62C2563.08,2858.39 2563.31,2857.97 2563.3,2857.51C2563.18,2852.28 2562.88,2839.38 2562.81,2836.36C2562.8,2835.96 2562.6,2835.58 2562.27,2835.36C2558.56,2832.88 2552.85,2830.14 2545.13,2827.16C2536.49,2823.85 2526.64,2822.2 2515.6,2822.2C2499.96,2822.2 2486.53,2827.44 2475.31,2837.93C2464.08,2848.23 2458.47,2860.56 2458.47,2874.91C2458.47,2889.45 2462.43,2900.67 2470.34,2908.58C2474.02,2912.26 2478.8,2915.8 2484.69,2919.21C2490.58,2922.61 2497.48,2925.6 2505.39,2928.18C2520.11,2933.33 2531.15,2938.85 2538.51,2944.74C2544.95,2950.08 2548.17,2957.8 2548.17,2967.92C2548.17,2977.68 2544.67,2985.77 2537.68,2992.21C2530.51,2998.84 2521.77,3002.15 2511.46,3002.15C2505.02,3002.15 2498.21,3000.58 2491.04,2997.45C2487.36,2995.8 2483.26,2993.59 2478.76,2990.83C2474.66,2988.33 2469.39,2984.68 2462.95,2979.9C2462.57,2979.62 2462.06,2979.57 2461.64,2979.79C2461.22,2980 2460.95,2980.43 2460.95,2980.9C2460.95,2986.62 2460.95,3000.42 2460.95,3003.47C2460.95,3003.86 2461.13,3004.22 2461.43,3004.46C2464.08,3006.52 2467.09,3008.42 2470.48,3010.15C2474.06,3011.99 2478.16,3013.92 2482.76,3015.95C2492.14,3020.36 2502.54,3022.57 2513.95,3022.57C2529.22,3022.57 2542.47,3017.24 2553.69,3006.56C2564.91,2996.08 2570.53,2983.47 2570.53,2968.75ZM2717.38,2956.49C2717.38,2971.49 2711.91,2984.45 2700.99,2995.38C2690.31,3006.18 2677.22,3011.59 2661.71,3011.59C2646.21,3011.59 2633.05,3006.18 2622.25,2995.38C2611.58,2984.71 2606.24,2971.74 2606.24,2956.49C2606.24,2941.37 2611.64,2928.4 2622.44,2917.6C2633.24,2906.8 2646.34,2901.4 2661.71,2901.4C2677.22,2901.4 2690.31,2906.8 2700.99,2917.6C2711.91,2928.53 2717.38,2941.49 2717.38,2956.49ZM3175.29,2956.68C3175.29,2973.08 3170.02,2986.17 3159.47,2995.95C3148.8,3005.87 3134.69,3010.82 3117.15,3010.82L3085.99,3010.82C3085.3,3010.82 3084.74,3010.26 3084.74,3009.57C3084.74,2998.32 3084.74,2914.66 3084.74,2903.41C3084.74,2902.72 3085.3,2902.16 3085.99,2902.16C3092.01,2902.16 3117.72,2902.16 3117.72,2902.16C3135.26,2902.16 3149.24,2907.18 3159.66,2917.22C3170.08,2927.26 3175.29,2940.41 3175.29,2956.68Z" style="fill:white;fill-rule:nonzero;"/>
            </g>
            <g transform="matrix(1,0,0,1,5048.73,8.32823)">
                <path d="M2392.09,1109.23C2392.09,1110.66 2391.97,1111.98 2391.72,1113.17C2391.47,1114.36 2391.04,1115.39 2390.42,1116.24C2389.8,1117.1 2388.99,1117.76 2387.97,1118.23C2386.96,1118.69 2385.7,1118.93 2384.19,1118.93C2383.65,1118.93 2383.12,1118.88 2382.61,1118.78C2382.09,1118.68 2381.61,1118.55 2381.17,1118.4C2380.74,1118.26 2380.35,1118.1 2380.03,1117.93C2379.7,1117.76 2379.48,1117.61 2379.37,1117.49C2379.26,1117.38 2379.18,1117.27 2379.12,1117.17C2379.06,1117.07 2379,1116.95 2378.95,1116.81C2378.9,1116.67 2378.87,1116.5 2378.85,1116.3C2378.83,1116.1 2378.82,1115.86 2378.82,1115.59C2378.82,1115.29 2378.84,1115.04 2378.88,1114.84C2378.92,1114.64 2378.97,1114.49 2379.04,1114.38C2379.11,1114.27 2379.2,1114.19 2379.3,1114.14C2379.39,1114.09 2379.51,1114.06 2379.65,1114.06C2379.81,1114.06 2380.02,1114.15 2380.28,1114.32C2380.54,1114.49 2380.85,1114.67 2381.22,1114.86C2381.59,1115.04 2382.02,1115.22 2382.52,1115.39C2383.01,1115.56 2383.59,1115.64 2384.25,1115.64C2384.98,1115.64 2385.61,1115.56 2386.14,1115.38C2386.67,1115.2 2387.1,1114.85 2387.44,1114.33C2387.78,1113.82 2388.03,1113.11 2388.2,1112.2C2388.37,1111.3 2388.45,1110.11 2388.45,1108.64L2388.45,1080.42C2388.45,1080.3 2388.48,1080.19 2388.54,1080.09C2388.6,1079.99 2388.7,1079.91 2388.84,1079.85C2388.98,1079.79 2389.17,1079.74 2389.41,1079.7C2389.64,1079.66 2389.93,1079.64 2390.27,1079.64C2390.61,1079.64 2390.9,1079.66 2391.14,1079.7C2391.38,1079.74 2391.56,1079.79 2391.7,1079.85C2391.84,1079.91 2391.94,1079.99 2392,1080.09C2392.06,1080.19 2392.09,1080.3 2392.09,1080.42L2392.09,1109.23ZM2638.94,1098.67C2638.94,1101.76 2638.59,1104.54 2637.88,1107.04C2637.18,1109.54 2636.12,1111.66 2634.7,1113.42C2633.29,1115.18 2631.51,1116.54 2629.37,1117.49C2627.22,1118.45 2624.71,1118.93 2621.85,1118.93C2618.99,1118.93 2616.53,1118.47 2614.47,1117.57C2612.41,1116.66 2610.72,1115.37 2609.4,1113.69C2608.07,1112.01 2607.1,1109.96 2606.47,1107.53C2605.85,1105.11 2605.53,1102.37 2605.53,1099.33C2605.53,1096.31 2605.88,1093.56 2606.58,1091.1C2607.27,1088.63 2608.33,1086.53 2609.75,1084.79C2611.18,1083.05 2612.96,1081.7 2615.09,1080.75C2617.23,1079.79 2619.74,1079.32 2622.62,1079.32C2625.43,1079.32 2627.85,1079.76 2629.9,1080.66C2631.95,1081.55 2633.65,1082.84 2634.99,1084.51C2636.33,1086.18 2637.33,1088.2 2637.97,1090.59C2638.62,1092.98 2638.94,1095.67 2638.94,1098.67ZM2547.36,1113.17C2547.36,1113.39 2547.35,1113.59 2547.33,1113.77C2547.31,1113.94 2547.28,1114.1 2547.24,1114.24C2547.2,1114.38 2547.15,1114.51 2547.08,1114.63C2547.01,1114.75 2546.88,1114.9 2546.69,1115.09C2546.5,1115.28 2546.09,1115.59 2545.45,1116.02C2544.82,1116.45 2544.01,1116.87 2543.05,1117.29C2542.09,1117.7 2540.98,1118.06 2539.72,1118.36C2538.47,1118.66 2537.09,1118.81 2535.58,1118.81C2533.15,1118.81 2530.96,1118.38 2528.99,1117.54C2527.02,1116.69 2525.34,1115.46 2523.96,1113.83C2522.58,1112.19 2521.52,1110.19 2520.77,1107.8C2520.02,1105.41 2519.65,1102.69 2519.65,1099.63C2519.65,1096.49 2520.05,1093.67 2520.85,1091.17C2521.64,1088.68 2522.76,1086.56 2524.2,1084.82C2525.64,1083.08 2527.37,1081.75 2529.39,1080.82C2531.41,1079.9 2533.64,1079.43 2536.09,1079.43C2537.24,1079.43 2538.36,1079.54 2539.44,1079.76C2540.53,1079.98 2541.53,1080.26 2542.44,1080.6C2543.35,1080.94 2544.18,1081.32 2544.9,1081.76C2545.63,1082.2 2546.12,1082.55 2546.39,1082.82C2546.66,1083.09 2546.83,1083.28 2546.9,1083.4C2546.97,1083.52 2547.02,1083.65 2547.06,1083.81C2547.1,1083.95 2547.13,1084.12 2547.15,1084.31C2547.17,1084.5 2547.18,1084.71 2547.18,1084.95C2547.18,1085.23 2547.17,1085.47 2547.14,1085.68C2547.11,1085.89 2547.06,1086.07 2546.99,1086.22C2546.92,1086.37 2546.83,1086.48 2546.74,1086.56C2546.64,1086.64 2546.52,1086.68 2546.38,1086.68C2546.1,1086.68 2545.71,1086.48 2545.2,1086.07C2544.69,1085.66 2544.03,1085.21 2543.2,1084.71C2542.38,1084.22 2541.37,1083.77 2540.17,1083.36C2538.98,1082.95 2537.56,1082.75 2535.91,1082.75C2534.1,1082.75 2532.44,1083.11 2530.93,1083.83C2529.41,1084.56 2528.12,1085.63 2527.03,1087.04C2525.95,1088.45 2525.11,1090.19 2524.5,1092.26C2523.89,1094.33 2523.59,1096.7 2523.59,1099.39C2523.59,1101.95 2523.87,1104.23 2524.42,1106.22C2524.98,1108.21 2525.79,1109.88 2526.84,1111.25C2527.89,1112.61 2529.2,1113.65 2530.75,1114.36C2532.3,1115.08 2534.06,1115.44 2536.03,1115.44C2537.64,1115.44 2539.04,1115.23 2540.25,1114.83C2541.45,1114.42 2542.48,1113.96 2543.33,1113.47C2544.19,1112.97 2544.89,1112.52 2545.44,1112.11C2545.98,1111.7 2546.41,1111.5 2546.7,1111.5C2546.82,1111.5 2546.92,1111.52 2547,1111.57C2547.08,1111.62 2547.15,1111.71 2547.2,1111.84C2547.25,1111.97 2547.29,1112.14 2547.32,1112.36C2547.35,1112.58 2547.36,1112.85 2547.36,1113.17ZM2829.08,1090.89C2829.08,1092.68 2828.78,1094.32 2828.17,1095.81C2827.56,1097.3 2826.69,1098.58 2825.56,1099.66C2824.43,1100.73 2823.04,1101.57 2821.41,1102.16C2819.78,1102.76 2817.81,1103.06 2815.51,1103.06L2810.5,1103.06L2810.5,1117.82C2810.5,1117.94 2810.47,1118.05 2810.41,1118.15C2810.35,1118.25 2810.25,1118.33 2810.11,1118.39C2809.97,1118.45 2809.78,1118.5 2809.56,1118.54C2809.33,1118.58 2809.03,1118.6 2808.68,1118.6C2808.34,1118.6 2808.05,1118.58 2807.81,1118.54C2807.57,1118.5 2807.38,1118.45 2807.24,1118.39C2807.11,1118.33 2807.01,1118.25 2806.95,1118.15C2806.89,1118.05 2806.86,1117.94 2806.86,1117.82L2806.86,1081.7C2806.86,1080.99 2807.05,1080.49 2807.42,1080.22C2807.8,1079.96 2808.17,1079.82 2808.53,1079.82L2816.37,1079.82C2817.15,1079.82 2817.9,1079.86 2818.64,1079.93C2819.37,1080 2820.23,1080.15 2821.22,1080.37C2822.2,1080.6 2823.21,1081.03 2824.23,1081.66C2825.26,1082.28 2826.12,1083.05 2826.84,1083.95C2827.56,1084.86 2828.11,1085.89 2828.5,1087.06C2828.88,1088.22 2829.08,1089.5 2829.08,1090.89ZM3078.14,1103.21L3078.14,1117.82C3078.14,1117.94 3078.11,1118.05 3078.05,1118.15C3077.99,1118.25 3077.89,1118.33 3077.75,1118.39C3077.61,1118.45 3077.42,1118.5 3077.18,1118.54C3076.94,1118.58 3076.65,1118.6 3076.32,1118.6C3075.96,1118.6 3075.66,1118.58 3075.43,1118.54C3075.21,1118.5 3075.02,1118.45 3074.87,1118.39C3074.72,1118.33 3074.62,1118.25 3074.56,1118.15C3074.5,1118.05 3074.47,1117.94 3074.47,1117.82L3074.47,1103.21L3063.37,1081.05C3063.23,1080.75 3063.15,1080.51 3063.13,1080.33C3063.11,1080.15 3063.16,1080.01 3063.27,1079.91C3063.38,1079.81 3063.56,1079.74 3063.82,1079.7C3064.08,1079.66 3064.4,1079.64 3064.8,1079.64C3065.24,1079.64 3065.59,1079.66 3065.86,1079.69C3066.13,1079.72 3066.35,1079.76 3066.52,1079.82C3066.69,1079.88 3066.81,1079.96 3066.89,1080.06C3066.97,1080.16 3067.05,1080.28 3067.13,1080.42L3073.03,1092.44C3073.59,1093.57 3074.14,1094.75 3074.69,1095.96C3075.24,1097.17 3075.79,1098.39 3076.35,1099.63L3076.41,1099.63C3076.92,1098.45 3077.45,1097.27 3077.99,1096.08C3078.52,1094.88 3079.07,1093.7 3079.63,1092.53L3085.59,1080.42C3085.65,1080.28 3085.72,1080.16 3085.8,1080.06C3085.88,1079.96 3085.99,1079.88 3086.13,1079.82C3086.27,1079.76 3086.45,1079.72 3086.68,1079.69C3086.91,1079.66 3087.19,1079.64 3087.53,1079.64C3088.01,1079.64 3088.39,1079.66 3088.69,1079.7C3088.99,1079.74 3089.2,1079.82 3089.32,1079.93C3089.44,1080.04 3089.49,1080.18 3089.47,1080.36C3089.45,1080.54 3089.37,1080.77 3089.23,1081.05L3078.14,1103.21ZM3002.63,1116.66C3002.63,1117.02 3002.58,1117.32 3002.47,1117.55C3002.36,1117.79 3002.22,1117.99 3002.05,1118.14C3001.88,1118.29 3001.69,1118.39 3001.48,1118.45C3001.28,1118.51 3001.08,1118.54 3000.9,1118.54L3000.16,1118.54C2999.76,1118.54 2999.4,1118.49 2999.07,1118.39C2998.74,1118.29 2998.42,1118.12 2998.11,1117.87C2997.8,1117.62 2997.5,1117.29 2997.19,1116.87C2996.88,1116.45 2996.54,1115.91 2996.16,1115.26L2982.56,1091.16C2981.88,1089.98 2981.2,1088.78 2980.51,1087.53C2979.83,1086.29 2979.18,1085.08 2978.56,1083.91L2978.53,1083.91C2978.55,1085.36 2978.56,1086.85 2978.56,1088.37L2978.56,1117.82C2978.56,1117.94 2978.53,1118.05 2978.47,1118.15C2978.41,1118.25 2978.31,1118.33 2978.17,1118.39C2978.03,1118.45 2977.85,1118.5 2977.62,1118.54C2977.39,1118.58 2977.1,1118.6 2976.74,1118.6C2976.4,1118.6 2976.12,1118.58 2975.88,1118.54C2975.64,1118.5 2975.45,1118.45 2975.31,1118.39C2975.17,1118.33 2975.07,1118.25 2975.01,1118.15C2974.95,1118.05 2974.92,1117.94 2974.92,1117.82L2974.92,1081.7C2974.92,1080.99 2975.11,1080.49 2975.49,1080.22C2975.87,1079.96 2976.24,1079.82 2976.59,1079.82L2978.08,1079.82C2978.56,1079.82 2978.96,1079.86 2979.28,1079.94C2979.6,1080.02 2979.88,1080.16 2980.14,1080.35C2980.4,1080.53 2980.66,1080.8 2980.9,1081.15C2981.15,1081.5 2981.43,1081.94 2981.72,1082.48L2992.13,1100.94C2992.79,1102.09 2993.41,1103.2 2994,1104.27C2994.58,1105.33 2995.16,1106.37 2995.71,1107.4C2996.27,1108.42 2996.82,1109.43 2997.37,1110.42C2997.91,1111.42 2998.46,1112.42 2998.99,1113.44L2999.02,1113.44C2999,1111.77 2998.99,1110.03 2998.99,1108.22L2998.99,1080.54C2998.99,1080.42 2999.02,1080.31 2999.08,1080.21C2999.14,1080.11 2999.24,1080.03 2999.38,1079.96C2999.52,1079.89 2999.7,1079.84 2999.93,1079.81C3000.16,1079.78 3000.45,1079.76 3000.81,1079.76C3001.13,1079.76 3001.41,1079.78 3001.65,1079.81C3001.89,1079.84 3002.08,1079.89 3002.22,1079.96C3002.35,1080.03 3002.46,1080.11 3002.53,1080.21C3002.6,1080.31 3002.63,1080.42 3002.63,1080.54L3002.63,1116.66ZM2914.22,1117.2C2914.33,1117.49 2914.39,1117.74 2914.38,1117.93C2914.37,1118.12 2914.3,1118.26 2914.17,1118.36C2914.04,1118.46 2913.84,1118.52 2913.57,1118.55C2913.3,1118.58 2912.96,1118.6 2912.54,1118.6C2912.13,1118.6 2911.79,1118.58 2911.55,1118.55C2911.3,1118.52 2911.1,1118.48 2910.96,1118.42C2910.82,1118.36 2910.72,1118.28 2910.65,1118.18C2910.58,1118.08 2910.52,1117.96 2910.46,1117.82L2906.76,1107.53L2889.82,1107.53L2886.27,1117.76C2886.23,1117.9 2886.17,1118.02 2886.09,1118.12C2886.01,1118.22 2885.9,1118.31 2885.76,1118.37C2885.62,1118.44 2885.43,1118.5 2885.18,1118.54C2884.93,1118.58 2884.62,1118.6 2884.24,1118.6C2883.82,1118.6 2883.47,1118.58 2883.19,1118.54C2882.92,1118.5 2882.71,1118.43 2882.58,1118.33C2882.45,1118.23 2882.38,1118.09 2882.37,1117.91C2882.36,1117.73 2882.42,1117.49 2882.54,1117.2L2896.05,1080.48C2896.11,1080.32 2896.2,1080.19 2896.32,1080.08C2896.44,1079.97 2896.59,1079.88 2896.78,1079.82C2896.97,1079.76 2897.2,1079.72 2897.47,1079.69C2897.74,1079.66 2898.04,1079.64 2898.38,1079.64C2898.73,1079.64 2899.05,1079.66 2899.32,1079.69C2899.58,1079.72 2899.81,1079.76 2900,1079.82C2900.19,1079.88 2900.34,1079.97 2900.45,1080.08C2900.56,1080.19 2900.64,1080.32 2900.7,1080.48L2914.22,1117.2ZM2741.88,1117.82C2741.88,1117.94 2741.85,1118.05 2741.79,1118.15C2741.74,1118.25 2741.63,1118.33 2741.48,1118.39C2741.33,1118.45 2741.14,1118.5 2740.91,1118.54C2740.69,1118.58 2740.39,1118.6 2740.03,1118.6C2739.72,1118.6 2739.44,1118.58 2739.2,1118.54C2738.96,1118.5 2738.77,1118.45 2738.63,1118.39C2738.49,1118.33 2738.39,1118.25 2738.33,1118.15C2738.28,1118.05 2738.24,1117.94 2738.24,1117.82L2738.24,1083.01L2738.18,1083.01L2723,1118.03C2722.96,1118.11 2722.9,1118.18 2722.82,1118.26C2722.74,1118.33 2722.64,1118.38 2722.5,1118.43C2722.36,1118.48 2722.19,1118.52 2722,1118.55C2721.82,1118.58 2721.59,1118.6 2721.33,1118.6C2721.05,1118.6 2720.82,1118.58 2720.62,1118.55C2720.42,1118.52 2720.25,1118.48 2720.12,1118.43C2719.99,1118.38 2719.89,1118.33 2719.81,1118.26C2719.73,1118.18 2719.68,1118.11 2719.66,1118.03L2705.23,1083.01L2705.2,1083.01L2705.2,1117.82C2705.2,1117.94 2705.17,1118.05 2705.11,1118.15C2705.05,1118.25 2704.94,1118.33 2704.79,1118.39C2704.64,1118.45 2704.45,1118.5 2704.23,1118.54C2704,1118.58 2703.7,1118.6 2703.32,1118.6C2702.98,1118.6 2702.7,1118.58 2702.47,1118.54C2702.24,1118.5 2702.05,1118.45 2701.91,1118.39C2701.78,1118.33 2701.68,1118.25 2701.63,1118.15C2701.58,1118.05 2701.56,1117.94 2701.56,1117.82L2701.56,1081.7C2701.56,1080.99 2701.75,1080.49 2702.12,1080.22C2702.5,1079.96 2702.87,1079.82 2703.23,1079.82L2705.2,1079.82C2705.69,1079.82 2706.13,1079.88 2706.51,1079.99C2706.89,1080.1 2707.22,1080.26 2707.51,1080.46C2707.8,1080.67 2708.04,1080.93 2708.24,1081.22C2708.44,1081.52 2708.62,1081.86 2708.78,1082.24L2721.51,1112.9L2721.66,1112.9L2734.93,1082.36C2735.13,1081.88 2735.35,1081.48 2735.58,1081.15C2735.8,1080.82 2736.04,1080.56 2736.29,1080.36C2736.54,1080.16 2736.81,1080.02 2737.1,1079.94C2737.39,1079.86 2737.7,1079.82 2738.04,1079.82L2740.21,1079.82C2740.39,1079.82 2740.58,1079.85 2740.78,1079.91C2740.98,1079.97 2741.16,1080.08 2741.32,1080.22C2741.48,1080.37 2741.61,1080.57 2741.72,1080.81C2741.83,1081.05 2741.88,1081.34 2741.88,1081.7L2741.88,1117.82ZM2322.38,1098.55C2322.38,1101.8 2321.97,1104.65 2321.15,1107.13C2320.34,1109.61 2319.13,1111.68 2317.54,1113.35C2315.95,1115.02 2313.99,1116.28 2311.65,1117.14C2309.32,1117.99 2306.53,1118.42 2303.29,1118.42L2295.68,1118.42C2295.32,1118.42 2294.95,1118.29 2294.58,1118.02C2294.2,1117.75 2294.01,1117.26 2294.01,1116.54L2294.01,1081.7C2294.01,1080.99 2294.2,1080.49 2294.58,1080.22C2294.95,1079.96 2295.32,1079.82 2295.68,1079.82L2303.79,1079.82C2307.07,1079.82 2309.84,1080.27 2312.1,1081.16C2314.36,1082.06 2316.25,1083.33 2317.77,1084.97C2319.29,1086.61 2320.44,1088.58 2321.21,1090.87C2321.99,1093.17 2322.38,1095.73 2322.38,1098.55ZM2635.06,1099C2635.06,1096.71 2634.85,1094.57 2634.42,1092.57C2633.99,1090.58 2633.29,1088.84 2632.3,1087.35C2631.32,1085.87 2630.01,1084.71 2628.38,1083.86C2626.75,1083.02 2624.73,1082.6 2622.33,1082.6C2619.94,1082.6 2617.93,1083.04 2616.29,1083.92C2614.65,1084.81 2613.31,1086 2612.29,1087.49C2611.27,1088.98 2610.53,1090.72 2610.08,1092.71C2609.64,1094.7 2609.41,1096.79 2609.41,1099C2609.41,1101.35 2609.62,1103.53 2610.02,1105.55C2610.43,1107.57 2611.12,1109.32 2612.1,1110.81C2613.07,1112.31 2614.37,1113.47 2616,1114.32C2617.63,1115.16 2619.67,1115.59 2622.12,1115.59C2624.54,1115.59 2626.58,1115.13 2628.23,1114.23C2629.88,1113.32 2631.22,1112.11 2632.23,1110.59C2633.24,1109.07 2633.97,1107.31 2634.41,1105.31C2634.84,1103.31 2635.06,1101.21 2635.06,1099ZM2318.47,1098.73C2318.47,1096.49 2318.18,1094.4 2317.62,1092.48C2317.05,1090.57 2316.18,1088.91 2314.99,1087.52C2313.81,1086.13 2312.31,1085.04 2310.5,1084.25C2308.7,1083.47 2306.39,1083.07 2303.58,1083.07L2297.65,1083.07L2297.65,1115.17L2303.61,1115.17C2306.24,1115.17 2308.46,1114.85 2310.28,1114.2C2312.1,1113.55 2313.62,1112.55 2314.83,1111.2C2316.04,1109.85 2316.95,1108.14 2317.56,1106.09C2318.16,1104.03 2318.47,1101.58 2318.47,1098.73ZM2898.2,1083.73L2898.17,1083.73L2890.89,1104.49L2905.65,1104.49L2898.2,1083.73ZM2825.23,1091.22C2825.23,1089.55 2824.9,1088.13 2824.25,1086.97C2823.59,1085.8 2822.79,1084.94 2821.85,1084.37C2820.9,1083.81 2819.92,1083.45 2818.89,1083.3C2817.87,1083.15 2816.9,1083.07 2815.98,1083.07L2810.5,1083.07L2810.5,1099.84L2815.74,1099.84C2817.44,1099.84 2818.85,1099.62 2819.98,1099.19C2821.11,1098.77 2822.07,1098.18 2822.84,1097.42C2823.62,1096.66 2824.21,1095.76 2824.62,1094.69C2825.03,1093.63 2825.23,1092.47 2825.23,1091.22Z" style="fill:white;"/>
            </g>
            <g transform="matrix(0.953114,0,0,0.542857,5080.39,-567.774)">
                <path d="M3212.2,3142.59C3212.2,3140.43 3211.71,3138.36 3210.84,3136.84C3209.97,3135.31 3208.79,3134.45 3207.56,3134.45C3143.45,3134.45 2434.69,3134.45 2370.58,3134.45C2369.35,3134.45 2368.17,3135.31 2367.3,3136.84C2366.43,3138.36 2365.94,3140.43 2365.94,3142.59C2365.94,3146.55 2365.94,3151.29 2365.94,3155.25C2365.94,3157.41 2366.43,3159.48 2367.3,3161C2368.17,3162.53 2369.35,3163.39 2370.58,3163.39C2434.69,3163.39 3143.45,3163.39 3207.56,3163.39C3208.79,3163.39 3209.97,3162.53 3210.84,3161C3211.71,3159.48 3212.2,3157.41 3212.2,3155.25C3212.2,3151.29 3212.2,3146.55 3212.2,3142.59Z" style="fill:white;fill-opacity:0.23;"/>
            </g>
        </g>
    </g>
    <defs>
        <linearGradient id="_Linear1" x1="0" y1="0" x2="1" y2="0" gradientUnits="userSpaceOnUse" gradientTransform="matrix(-318.842,3.90469e-14,-3.90469e-14,-318.842,2431.97,823.793)"><stop offset="0" style="stop-color:white;stop-opacity:0.23"/><stop offset="1" style="stop-color:white;stop-opacity:0"/></linearGradient>
        <linearGradient id="_Linear2" x1="0" y1="0" x2="1" y2="0" gradientUnits="userSpaceOnUse" gradientTransform="matrix(184.67,0,0,184.67,1820.39,1044.56)"><stop offset="0" style="stop-color:white;stop-opacity:1"/><stop offset="1" style="stop-color:white;stop-opacity:0.270588"/></linearGradient>
    </defs>
</svg>
